<?xml version="1.0" encoding="UTF-8" standalone="no"?>
<!-- Created with Inkscape (http://www.inkscape.org/) -->

<svg
   width="519.52081mm"
   height="78.743713mm"
   viewBox="0 0 519.52081 78.743713"
   version="1.1"
   id="svg1"
   xml:space="preserve"
   xmlns="http://www.w3.org/2000/svg"
   xmlns:svg="http://www.w3.org/2000/svg"><defs
     id="defs1" /><g
     id="layer1"
     transform="translate(1590.5331,-470.53194)"><g
       id="g23"
       transform="translate(132.13137,-25.724688)"><text
         xml:space="preserve"
         style="font-size:66.8131px;fill:#ffffff;fill-opacity:1;stroke:#000000;stroke-width:1.894;stroke-dasharray:none;stroke-opacity:0"
         x="-1700.7775"
         y="519.50769"
         id="text7-4-0-9"
         transform="scale(0.94276342,1.0607115)"><tspan
           id="tspan7-8-6-2"
           style="font-weight:bold;font-size:66.8131px;fill:#ffffff;fill-opacity:1;stroke-width:1.894;stroke-dasharray:none"
           x="-1700.7775"
           y="519.50769">DizitalAdda</tspan></text><text
         xml:space="preserve"
         style="font-size:21.1667px;fill:#ffffff;fill-opacity:1;stroke:#000000;stroke-width:1;stroke-dasharray:none;stroke-opacity:0"
         x="-1596.5613"
         y="574.17993"
         id="text10-4-8-1"><tspan
           id="tspan10-5-7-1"
           style="font-weight:normal;font-size:21.1667px;fill:#ffffff;fill-opacity:1;stroke:#ffffff;stroke-width:1;stroke-opacity:1"
           x="-1596.5613"
           y="574.17993">India's Most Recommended Institute </tspan></text><g
         id="g109-8-0"
         transform="translate(-818.49791,108.30177)"
         style="fill:#ffffff"><path
           style="fill:#ffffff;fill-opacity:1;stroke:#ffffff;stroke-width:0;stroke-linejoin:miter;stroke-miterlimit:30;stroke-dasharray:none;stroke-dashoffset:0;stroke-opacity:1;paint-order:fill markers stroke"
           d="m -899.99679,393.15431 c 0,0 -4.13411,-2.89388 -4.13411,3.7207 0,6.61459 0,66.35253 0,66.35253 0,0 -0.62011,3.30729 3.30729,3.30729 3.92742,0 28.9388,0 28.9388,0 0,0 5.58107,-0.20669 10.7487,-2.06706 h 9.71517 l 60.56478,-42.16796 -0.41341,-10.12858 -47.95573,33.69304 c 0,0 -3.7207,2.06705 -1.24023,-2.27377 2.48047,-4.34082 12.81575,-23.77116 12.81575,-23.77116 0,0 1.24024,-4.34082 3.92741,-0.41341 2.68718,3.92741 4.34082,6.40788 4.34082,6.40788 l 6.61459,-4.96094 c 0,0 2.27376,-0.62012 0.62011,-2.48047 -1.65364,-1.86035 -14.26269,-23.77116 -14.26269,-23.77116 l -28.9388,50.64291 c 0,0 -5.99447,8.68164 -15.29623,8.68164 -9.30176,0 -20.46387,0 -20.46387,0 0,0 -1.65364,1.03353 -1.65364,-1.65365 0,-2.68717 0,-45.47526 0,-45.47526 0,0 0.0534,-2.64093 4.57422,-2.64093 4.52083,0 15.26953,0 15.26953,0 0,0 16.74316,0.57388 21.91081,17.93716 l 6.84501,-11.8559 c 0,0 -7.05172,-16.25608 -29.58264,-16.8762 -22.53093,-0.62012 -26.25164,-0.2067 -26.25164,-0.2067 z"
           id="path55-7-8" /><path
           style="fill:#ffffff;fill-opacity:1;stroke:#ffffff;stroke-width:0;stroke-linejoin:miter;stroke-miterlimit:30;stroke-dasharray:none;stroke-dashoffset:0;stroke-opacity:1;paint-order:fill markers stroke"
           d="m -810.93143,439.26691 6.13886,-4.60415 c 0,0 0.71359,-0.78263 2.55786,2.41171 1.84425,3.19434 14.71459,25.48644 14.71459,25.48644 0,0 1.29024,1.2614 -1.19451,1.40755 -2.48478,0.14616 -5.11572,0 -5.11572,0 0,0 -2.19244,0.29232 -4.7503,-3.72715 -2.55784,-4.0195 -12.35078,-20.9744 -12.35078,-20.9744 z"
           id="path57-9-4" /></g></g></g></svg>
